<?xml version="1.0" ?><svg viewBox="0 0 512 512" xmlns="http://www.w3.org/2000/svg"><title/><g data-name="1" id="_1"><path d="M441.13,406h-372a15,15,0,0,1-15-15V139a15,15,0,0,1,15-15h372a15,15,0,0,1,15,15V391A15,15,0,0,1,441.13,406Zm-357-30h342V154h-342Z"/><path d="M255.13,336a15,15,0,0,1-10.49-4.28l-186-182a15,15,0,1,1,21-21.44L255.13,300,430.64,128.28a15,15,0,0,1,21,21.44l-186,182A15,15,0,0,1,255.13,336Z"/><path d="M69.13,406a15,15,0,0,1-10-26.13L193,258.91a15,15,0,1,1,20.1,22.26l-133.92,121A15,15,0,0,1,69.13,406Z"/><path d="M441.12,406a14.92,14.92,0,0,1-10-3.87l-133.92-121a15,15,0,0,1,20.1-22.26l133.92,121A15,15,0,0,1,441.12,406Z"/></g></svg>